<svg height="511pt" fill="#95a0c2" viewBox="-39 0 511 511.99925" width="511pt" xmlns="http://www.w3.org/2000/svg"><path d="m425.238281 46.226562-206.28125-45.988281c-1.433593-.316406-2.917969-.316406-4.351562 0l-206.28125 45.988281c-4.574219 1.019532-7.824219 5.078126-7.824219 9.761719v151.503907c0 66.722656 20.230469 130.871093 58.507812 185.519531 38.277344 54.648437 91.652344 95.585937 154.355469 118.386719 1.105469.398437 2.261719.601562 3.417969.601562s2.3125-.203125 3.417969-.601562c62.703125-22.800782 116.078125-63.738282 154.351562-118.386719 38.277344-54.644531 58.511719-118.796875 58.511719-185.519531v-151.503907c0-4.6875-3.25-8.742187-7.824219-9.761719zm-12.175781 161.265626c0 62.59375-18.980469 122.777343-54.890625 174.046874-35.210937 50.269532-84.042969 88.175782-141.390625 109.796876-57.347656-21.621094-106.179688-59.527344-141.390625-109.796876-35.910156-51.269531-54.890625-111.453124-54.890625-174.046874v-143.488282l196.28125-43.757812 196.28125 43.757812zm0 0"/><path d="m214.605469 48.40625-159.269531 35.507812c-4.570313 1.019532-7.824219 5.074219-7.824219 9.757813v113.820313c0 57.019531 17.292969 111.84375 50.003906 158.546874 29.101563 41.550782 68.957031 74.230469 115.253906 94.507813 1.28125.558594 2.644531.839844 4.011719.839844s2.734375-.28125 4.011719-.839844c46.300781-20.277344 86.152343-52.957031 115.253906-94.507813 32.714844-46.703124 50.003906-101.527343 50.003906-158.546874v-113.820313c0-4.683594-3.25-8.738281-7.824219-9.757813l-82.625-18.421874c-5.390624-1.199219-10.734374 2.195312-11.9375 7.585937-1.203124 5.386719 2.195313 10.730469 7.585938 11.933594l74.800781 16.675781v105.804688c0 52.894531-16.039062 103.75-46.386719 147.074218-26.148437 37.335938-61.660156 66.953125-102.882812 85.863282-41.226562-18.914063-76.734375-48.527344-102.886719-85.863282-30.34375-43.324218-46.382812-94.179687-46.382812-147.074218v-105.804688l151.445312-33.761719c5.390625-1.203125 8.785157-6.546875 7.582031-11.9375-1.199218-5.390625-6.542968-8.785156-11.933593-7.582031zm0 0"/><path d="m312.425781 172.699219c1.402344-1.769531 2.167969-3.957031 2.167969-6.214844v-26.988281c0-5.523438-4.476562-10-10-10s-10 4.476562-10 10v23.503906l-13.277344 16.738281c-.804687-.871093-1.613281-1.734375-2.453125-2.574219-4.875-4.875-10.289062-9.097656-16.148437-12.617187.027344-.644531.046875-1.292969.046875-1.945313 0-23.820312-19.378907-43.199218-43.199219-43.199218s-43.199219 19.378906-43.199219 43.199218c0 .652344.019531 1.300782.050781 1.949219-5.859374 3.515625-11.269531 7.738281-16.144531 12.613281-.820312.820313-1.609375 1.664063-2.394531 2.511719l-13.226562-16.675781v-23.5c0-5.523438-4.476563-10-10-10-5.523438 0-10 4.476562-10 10v26.984375c0 2.257813.761718 4.445313 2.164062 6.214844l18.949219 23.886719c-5 9.222656-8.199219 19.324218-9.445313 29.871093h-19.539062l-15.625-15.621093c-3.90625-3.90625-10.238282-3.90625-14.144532 0-3.902343 3.902343-3.902343 10.234374 0 14.140624l18.554688 18.550782c1.875 1.875 4.417969 2.929687 7.070312 2.929687h23.691407c1.269531 10.640625 4.523437 20.683594 9.410156 29.726563l-18.921875 23.847656c-1.402344 1.769531-2.164062 3.957031-2.164062 6.214844v26.984375c0 5.523437 4.476562 10 10 10 5.523437 0 10-4.476563 10-10v-23.5l13.167968-16.601563c15.339844 16.699219 37.339844 27.1875 61.75 27.1875 22.394532 0 43.453125-8.722656 59.292969-24.5625.871094-.871094 1.707031-1.761718 2.535156-2.660156l13.195313 16.636719v23.503906c0 5.523437 4.480468 10 10 10 5.523437 0 10-4.476563 10-10v-26.988281c0-2.253906-.761719-4.445313-2.164063-6.214844l-18.949219-23.886719c4.941407-9.171875 8.097657-19.210937 9.335938-29.6875h23.792969c2.652343 0 5.195312-1.054687 7.070312-2.929687l18.554688-18.550782c3.902343-3.90625 3.902343-10.234374 0-14.140624-3.90625-3.90625-10.238281-3.90625-14.144531 0l-15.621094 15.621093h-19.652344c-1.242188-10.515625-4.425781-20.589843-9.398438-29.792969zm-92.863281-33.296875c12.792969 0 23.199219 10.40625 23.199219 23.199218 0 1.898438-.230469 3.742188-.664063 5.507813-2.015625 8.292969-8.707031 14.972656-16.984375 17.015625-8.765625 2.164062-18.191406-1.109375-23.773437-8.183594-3.203125-4.058594-4.972656-9.167968-4.972656-14.339844-.003907-12.792968 10.40625-23.199218 23.195312-23.199218zm.003906 160.914062c-21.898437 0-41.253906-11.082031-52.765625-27.933594-.320312-.628906-.707031-1.234374-1.167969-1.792968-6.273437-9.882813-9.925781-21.585938-9.925781-34.132813 0-12.597656 3.632813-24.636719 10.390625-34.929687.117188-.167969.21875-.335938.324219-.507813 2.316406-3.453125 4.984375-6.707031 7.992187-9.714843 2.464844-2.464844 5.105469-4.714844 7.910157-6.730469 5.917969 10.101562 15.734375 17.351562 27.238281 20.046875v22.558594c0 5.523437 4.476562 10 10 10s10-4.476563 10-10v-22.554688c11.507812-2.699219 21.324219-9.945312 27.242188-20.050781 2.804687 2.015625 5.449218 4.265625 7.914062 6.730469 12.0625 12.0625 18.707031 28.097656 18.707031 45.152343 0 12.492188-3.578125 24.429688-10.226562 34.667969-.191407.269531-.371094.546875-.53125.828125-2.304688 3.433594-4.960938 6.667969-7.949219 9.65625-12.0625 12.066406-28.097656 18.707031-45.152344 18.707031zm0 0"/><path d="m228.800781 262.179688c-1.585937-3.871094-5.597656-6.386719-9.769531-6.160157-4.164062.222657-7.816406 3.097657-9.03125 7.078125-1.195312 3.925782.207031 8.339844 3.476562 10.835938 3.363282 2.570312 8.109376 2.738281 11.636719.382812 3.914063-2.609375 5.5-7.785156 3.6875-12.136718zm0 0"/><path d="m246.070312 70.597656c1.601563 3.84375 5.542969 6.382813 9.71875 6.167969 4.117188-.214844 7.769532-3.007813 9.03125-6.929687 1.28125-3.972657-.113281-8.457032-3.433593-10.992188-3.367188-2.574219-8.101563-2.734375-11.636719-.386719-3.917969 2.605469-5.488281 7.800781-3.679688 12.140625zm0 0"/></svg>