<svg id="flashlight-automat" fill="#95a0c2" enable-background="new 0 0 300 300" height="512" viewBox="0 0 300 300" width="512"
     xmlns="http://www.w3.org/2000/svg">
    <g>
        <path d="m219.428 92.641c-1.449-4.096-5.195-6.742-9.539-6.742h-43.75l29.016-24.414c.398-.332.723-.738.965-1.197 2.066-3.922 1.93-8.531-.359-12.326-2.293-3.797-6.309-6.062-10.742-6.062h-61.844c-1.484 0-2.848.822-3.539 2.137l-22.65 43.037c-1.029 1.955-.279 4.375 1.676 5.402 1.955 1.033 4.375.275 5.402-1.676l21.525-40.9h59.43c2.316 0 3.496 1.535 3.895 2.197.355.592 1.047 2.07.402 3.85l-36.716 30.891c-1.285 1.082-1.758 2.852-1.184 4.432.574 1.578 2.078 2.629 3.758 2.629h54.715c1.352 0 1.848.988 1.996 1.412.152.424.387 1.504-.66 2.355-.176.139-.336.295-.484.461l-121.479 137.75 49.572-112.363c.547-1.238.43-2.666-.309-3.799s-2-1.816-3.352-1.816h-45.373l7.357-13.979c1.029-1.955.279-4.373-1.676-5.402-1.959-1.029-4.375-.279-5.402 1.676l-10.443 19.842c-.652 1.24-.609 2.73.115 3.93.725 1.201 2.023 1.934 3.424 1.934h45.863l-57.524 130.384c-.795 1.805-.158 3.922 1.504 4.984.664.426 1.412.631 2.154.631 1.115 0 2.219-.465 3.002-1.354l138.371-156.904c3.157-2.746 4.29-7.023 2.883-11z"/>
        <path d="m57.2 185.899c-.01 0-.018 0-.025 0-3.73 0-7.238 1.449-9.881 4.082-2.65 2.641-4.113 6.154-4.119 9.893-.006 3.74 1.443 7.258 4.082 9.906 2.641 2.65 6.154 4.113 9.893 4.119h.025c3.73 0 7.238-1.449 9.881-4.082 2.65-2.641 4.113-6.154 4.119-9.893.006-3.74-1.443-7.258-4.082-9.906-2.641-2.65-6.155-4.113-9.893-4.119zm4.209 18.25c-1.133 1.129-2.635 1.75-4.234 1.75-.004 0-.008 0-.01 0-1.604-.002-3.109-.629-4.24-1.766-1.131-1.135-1.752-2.643-1.75-4.244.002-1.604.629-3.109 1.766-4.24 1.133-1.129 2.635-1.75 4.234-1.75h.01c1.604.002 3.109.629 4.24 1.766 1.131 1.135 1.752 2.643 1.75 4.244-.002 1.603-.629 3.109-1.766 4.24z"/>
        <path d="m36.731 119.387c-2.478.344-4.207 2.632-3.862 5.11.344 2.478 2.632 4.207 5.11 3.862 2.478-.344 4.207-2.632 3.863-5.11-.345-2.477-2.633-4.207-5.111-3.862z"/>
        <path d="m101.842 151.25c-.344-2.478-2.632-4.207-5.11-3.862-2.478.344-4.207 2.632-3.862 5.11.344 2.478 2.632 4.207 5.11 3.862 2.477-.345 4.206-2.633 3.862-5.11z"/>
        <path d="m221.182 135.243 4.51 4.527-4.529 4.512c-1.562 1.559-1.57 4.092-.008 5.656.781.785 1.805 1.178 2.832 1.178 1.02 0 2.043-.389 2.824-1.166l4.529-4.512 4.51 4.527c.781.785 1.805 1.178 2.832 1.178 1.02 0 2.043-.389 2.824-1.166 1.562-1.559 1.57-4.092.008-5.656l-4.51-4.527 4.529-4.512c1.562-1.559 1.57-4.092.008-5.656-1.555-1.566-4.09-1.574-5.656-.012l-4.529 4.512-4.51-4.527c-1.559-1.566-4.09-1.574-5.656-.012-1.562 1.558-1.57 4.091-.008 5.656z"/>
        <path d="m210.831 196.274c-.645-1.443-2.074-2.375-3.656-2.375s-3.012.932-3.656 2.375l-16 36c-.895 2.02.012 4.383 2.031 5.279 2.02.908 4.383-.01 5.281-2.029l4.278-9.625h16.132l4.278 9.625c.664 1.49 2.125 2.377 3.66 2.377.543 0 1.094-.111 1.621-.348 2.02-.896 2.926-3.26 2.031-5.279zm-8.167 21.625 4.511-10.15 4.511 10.15z"/>
        <path d="m45.302 61.409 9.285 5.078 5.078 9.285c.701 1.283 2.047 2.08 3.51 2.08s2.809-.797 3.51-2.08l5.078-9.285 9.285-5.078c1.283-.701 2.08-2.047 2.08-3.51s-.797-2.809-2.08-3.51l-9.285-5.078-5.078-9.285c-1.402-2.566-5.617-2.566-7.02 0l-5.078 9.285-9.285 5.078c-1.283.701-2.08 2.047-2.08 3.51s.796 2.809 2.08 3.51zm14.152-5.641c.67-.367 1.223-.92 1.59-1.59l2.131-3.896 2.131 3.896c.367.67.92 1.223 1.59 1.59l3.896 2.131-3.896 2.131c-.67.367-1.223.92-1.59 1.59l-2.131 3.896-2.131-3.896c-.367-.67-.92-1.223-1.59-1.59l-3.896-2.131z"/>
        <path d="m263.175 213.899h-12.203c-2.03-22.392-20.886-40-43.797-40-22.925 0-41.788 17.63-43.8 40.041-.07-.004-.129-.041-.2-.041h-16c-2.211 0-4 1.791-4 4s1.789 4 4 4h16c.071 0 .13-.037.2-.041 2.011 22.411 20.874 40.041 43.8 40.041 22.912 0 41.767-17.608 43.797-40h12.203c2.211 0 4-1.791 4-4s-1.789-4-4-4zm-56 40c-19.852 0-36-16.15-36-36s16.148-36 36-36 36 16.15 36 36-16.149 36-36 36z"/>
    </g>
</svg>