<svg id="corel-file" enable-background="new 0 0 300 300" height="512" viewBox="0 0 300 300" width="512" xmlns="http://www.w3.org/2000/svg"><g><path d="m257.656 73.172-32-32c-.75-.75-1.766-1.172-2.828-1.172h-120c-6.617 0-12 5.383-12 12v196c0 6.617 5.383 12 12 12h144c6.617 0 12-5.383 12-12v-172c0-1.061-.422-2.078-1.172-2.828zm-30.828-19.516 18.344 18.344h-18.344zm20 198.344h-144c-2.207 0-4-1.795-4-4v-196c0-2.205 1.793-4 4-4h116v28c0 2.209 1.789 4 4 4h28v168c0 2.205-1.793 4-4 4z"/><path d="m59.312 167.516c-1.562-1.562-4.094-1.562-5.656 0l-2.828 2.828-2.828-2.828c-1.562-1.562-4.094-1.562-5.656 0s-1.562 4.094 0 5.656l2.828 2.828-2.828 2.828c-1.562 1.562-1.562 4.094 0 5.656.781.781 1.805 1.172 2.828 1.172s2.047-.391 2.828-1.172l2.828-2.828 2.828 2.828c.781.781 1.805 1.172 2.828 1.172s2.047-.391 2.828-1.172c1.562-1.562 1.562-4.094 0-5.656l-2.828-2.828 2.828-2.828c1.563-1.563 1.563-4.094 0-5.656z"/><circle cx="78.828" cy="164" r="4"/><circle cx="66.828" cy="120" r="4"/><path d="m176.367 196h-9.539c-2.211 0-4 1.791-4 4v28c0 2.209 1.789 4 4 4h9.539c5.77 0 10.461-4.693 10.461-10.461v-15.078c0-5.768-4.691-10.461-10.461-10.461zm2.461 25.539c0 1.357-1.105 2.461-2.461 2.461h-5.539v-20h5.539c1.355 0 2.461 1.104 2.461 2.461z"/><path d="m145.289 204h9.539c2.211 0 4-1.791 4-4s-1.789-4-4-4h-9.539c-5.77 0-10.461 4.693-10.461 10.461v15.078c0 5.768 4.691 10.461 10.461 10.461h9.539c2.211 0 4-1.791 4-4s-1.789-4-4-4h-9.539c-1.355 0-2.461-1.104-2.461-2.461v-15.078c0-1.357 1.106-2.461 2.461-2.461z"/><path d="m205.402 196h-10.574c-2.211 0-4 1.791-4 4v28c0 2.209 1.789 4 4 4s4-1.791 4-4v-6.344l9.172 9.172c.781.781 1.805 1.172 2.828 1.172s2.047-.391 2.828-1.172c1.562-1.562 1.562-4.094 0-5.656l-5.562-5.562c3.891-1.162 6.734-4.771 6.734-9.033v-5.152c0-5.198-4.226-9.425-9.426-9.425zm1.426 14.576c0 .785-.641 1.424-1.426 1.424h-6.574v-8h6.574c.785 0 1.426.639 1.426 1.424z"/><path d="m178.828 184c2.211 0 4-1.791 4-4v-16c0-.683-.215-1.295-.517-1.858 12.242-11.264 24.517-36.494 24.517-54.943 0-23.027-12.449-35.199-36-35.199s-36 12.172-36 35.199c0 18.449 12.275 43.679 24.517 54.943-.302.562-.517 1.175-.517 1.858v16c0 2.209 1.789 4 4 4zm-8-104c7.289 0 12 12.246 12 31.199 0 20.756-7.898 42.834-12 48.062-4.102-5.229-12-27.307-12-48.062 0-18.953 4.711-31.199 12-31.199zm28 27.199c0 13.429-6.627 28.261-13.645 38.782 3.425-11.221 5.645-24.59 5.645-34.782 0-14.019-2.282-23.021-5.346-28.832 9.123 3.668 13.346 11.705 13.346 24.832zm-42.654-24.831c-3.064 5.811-5.346 14.812-5.346 28.832 0 10.192 2.219 23.56 5.645 34.782-7.017-10.52-13.645-25.353-13.645-38.782 0-13.128 4.223-21.165 13.346-24.832zm18.654 85.632v8h-8v-8z"/></g></svg>