<?xml version="1.0" standalone="no"?>
<!DOCTYPE svg PUBLIC "-//W3C//DTD SVG 20010904//EN"
 "http://www.w3.org/TR/2001/REC-SVG-20010904/DTD/svg10.dtd">
<svg version="1.0" xmlns="http://www.w3.org/2000/svg"
 width="512.000000pt" height="512.000000pt" viewBox="0 0 512.000000 512.000000"
 preserveAspectRatio="xMidYMid meet">
<metadata>
Created by potrace 1.16, written by Peter Selinger 2001-2019
</metadata>
<g transform="translate(0.000000,512.000000) scale(0.100000,-0.100000)"
fill="#95a0c2" stroke="none">
<path d="M3870 4945 c-652 -96 -1254 -184 -1337 -196 l-153 -22 0 -999 0 -998
1370 0 1370 0 0 1195 0 1195 -32 -1 c-18 -1 -566 -79 -1218 -174z"/>
<path d="M1020 4539 c-553 -76 -1008 -138 -1012 -138 -5 -1 -8 -377 -8 -836
l0 -835 1025 0 1025 0 0 975 c0 774 -3 975 -12 974 -7 -1 -465 -64 -1018 -140z"/>
<path d="M0 1545 c0 -616 3 -845 11 -845 13 0 1971 -267 2012 -275 l27 -4 0
984 0 985 -1025 0 -1025 0 0 -845z"/>
<path d="M2380 1386 l0 -1004 33 -6 c67 -12 2668 -376 2687 -376 20 0 20 7 20
1195 l0 1195 -1370 0 -1370 0 0 -1004z"/>
</g>
</svg>
