<svg id="Capa_1" enable-background="new 0 0 512 512" height="512" viewBox="0 0 512 512" width="512" xmlns="http://www.w3.org/2000/svg"><g><path d="m230.4 118.202 23.321-23.32-31.349-31.349-22.896 22.896c-5.934-3.467-12.227-6.151-18.809-8.025v-32.145h-44.333v31.881c-6.726 1.818-13.143 4.466-19.182 7.916l-22.524-22.523-31.348 31.349 22.671 22.672c-3.198 5.71-5.683 11.741-7.43 18.032h-33.016v45.334h33.306c1.867 6.405 4.5 12.529 7.871 18.304l-23.402 23.401 31.348 31.349 23.825-23.825c5.67 3.108 11.652 5.52 17.88 7.208v33.893h44.333v-34.155c6.105-1.74 11.967-4.18 17.53-7.296l24.175 24.176 31.349-31.349-24.027-24.027c3.19-5.584 5.698-11.498 7.497-17.678h33.305v-45.334h-33.018c-1.681-6.047-4.048-11.862-7.077-17.385zm25.095 47.718h-30.22c-2.749 12.927-7.375 23.759-14.771 34.702l22.004 22.003-10.136 10.136-22.07-22.07c-10.956 7.249-21.77 11.765-34.635 14.407v31.151h-14.333v-31.055c-13.006-2.488-23.958-6.871-35.068-14.071l-21.638 21.637-10.135-10.136 21.461-21.461c-7.649-11.09-12.428-22.067-15.23-35.244h-30.22v-15.334h30.097c2.591-13.069 7.107-24.032 14.457-35.139l-20.565-20.564 10.135-10.136 20.499 20.499c11.423-7.719 22.667-12.351 36.206-14.94v-29.046h14.333v29.143c13.387 2.749 24.507 7.549 35.748 15.303l20.958-20.958 10.135 10.136-21.133 21.133c7.103 10.961 11.485 21.765 14.024 34.571h30.097z"/><path d="m158 120.249c-20.678 0-37.5 16.822-37.5 37.5s16.822 37.5 37.5 37.5 37.5-16.822 37.5-37.5-16.822-37.5-37.5-37.5zm0 60c-12.407 0-22.5-10.094-22.5-22.5s10.093-22.5 22.5-22.5 22.5 10.094 22.5 22.5-10.093 22.5-22.5 22.5z"/><path d="m316 90.749v-89.499h-45.505v15h30.505v390.001h-286v-390.001h240.496v-15h-255.496v420.001h196v89.5h224.5v-15h-195.911l35.922-29.25h69.989v-15h-51.567l37.067-30.183v-.067h149.998v-120.001h-149.998v-30.001h149.5v-15h-149.5v-30h60v-74.995h-60v-45.505h181v390.002h-31.5v15h46.5v-420.002zm-23.673 330.502-81.327 66.221v-66.221zm158.671-105.001v90.001h-134.998v-90.001zm-89.998-149.996v44.995h-45v-44.995z"/><path d="m435.5 495.751h15v15h-15z"/><path d="m391 226.249h74.997v-74.995h-74.997zm15-59.995h44.997v44.995h-44.997z"/><path d="m347.17 451.501h118.33v15h-118.33z"/><path d="m286 301.25h-255v45h255zm-15 30h-225v-15h225z"/><path d="m30.5 361.252h45v15h-45z"/><path d="m135.5 361.252h45v15h-45z"/><path d="m240.495 361.252h45v15h-45z"/><path d="m30.5 31.25h15v15h-15z"/><path d="m60.5 31.25h15v15h-15z"/><path d="m465.515 121.25h15v15h-15z"/><path d="m435.5 121.25h15v15h-15z"/></g></svg>